<mxfile host="app.diagrams.net" modified="2023-05-19T02:00:06.571Z" agent="Mozilla/5.0 (Windows NT 10.0; Win64; x64) AppleWebKit/537.36 (KHTML, like Gecko) Chrome/113.0.0.0 Safari/537.36 Edg/113.0.1774.35" etag="2v4Vx79nB-yUAVUd4CK8" version="21.3.2" type="github">
  <diagram name="第 1 页" id="Ma_MEs4BpNNDH82TkwVK">
    <mxGraphModel dx="1970" dy="1091" grid="1" gridSize="10" guides="1" tooltips="1" connect="1" arrows="1" fold="1" page="1" pageScale="1" pageWidth="3300" pageHeight="4681" math="0" shadow="0">
      <root>
        <mxCell id="0" />
        <mxCell id="1" parent="0" />
      </root>
    </mxGraphModel>
  </diagram>
</mxfile>
